HIERARCHY
ROOT mixamorig:Hips
{
	OFFSET 0.000000 77.627144 7.190781
	CHANNELS 6 Xposition Yposition Zposition Xrotation Yrotation Zrotation
	JOINT mixamorig:Spine
	{
		OFFSET 0.000000 14.685707 -1.734714
		CHANNELS 3 Xrotation Yrotation Zrotation
		JOINT mixamorig:Spine1
		{
			OFFSET 0.000000 17.133331 -2.023833
			CHANNELS 3 Xrotation Yrotation Zrotation
			JOINT mixamorig:Spine2
			{
				OFFSET 0.000000 19.580948 -2.312953
				CHANNELS 3 Xrotation Yrotation Zrotation
				JOINT mixamorig:Neck
				{
					OFFSET 0.000000 22.028564 -2.602070
					CHANNELS 3 Xrotation Yrotation Zrotation
					JOINT mixamorig:Head
					{
						OFFSET 0.000000 7.772293 1.167654
						CHANNELS 3 Xrotation Yrotation Zrotation
						JOINT mixamorig:HeadTop_End
						{
							OFFSET 0.000000 26.518158 3.983897
							CHANNELS 3 Xrotation Yrotation Zrotation
							End Site
							{
								OFFSET 0.000000 26.815750 0.000000
							}
						}
					}
				}
				JOINT mixamorig:LeftShoulder
				{
					OFFSET 11.646637 18.513367 -2.583829
					CHANNELS 3 Xrotation Yrotation Zrotation
					JOINT mixamorig:LeftArm
					{
						OFFSET 23.494797 -6.787735 0.036483
						CHANNELS 3 Xrotation Yrotation Zrotation
						JOINT mixamorig:LeftForeArm
						{
							OFFSET 22.628841 -2.236465 0.895561
							CHANNELS 3 Xrotation Yrotation Zrotation
							JOINT mixamorig:LeftHand
							{
								OFFSET 32.235813 0.214081 0.341628
								CHANNELS 3 Xrotation Yrotation Zrotation
								JOINT mixamorig:LeftHandThumb1
								{
									OFFSET 4.043732 -2.301453 4.675424
									CHANNELS 3 Xrotation Yrotation Zrotation
									JOINT mixamorig:LeftHandThumb2
									{
										OFFSET 3.235001 -1.841141 3.740334
										CHANNELS 3 Xrotation Yrotation Zrotation
										JOINT mixamorig:LeftHandThumb3
										{
											OFFSET 4.136284 -1.355438 2.884997
											CHANNELS 3 Xrotation Yrotation Zrotation
											JOINT mixamorig:LeftHandThumb4
											{
												OFFSET 3.443222 -1.440781 1.895251
												CHANNELS 3 Xrotation Yrotation Zrotation
												End Site
												{
													OFFSET 3.082619 -1.455811 2.429330
												}
											}
										}
									}
								}
								JOINT mixamorig:LeftHandIndex1
								{
									OFFSET 12.534279 0.552322 5.370454
									CHANNELS 3 Xrotation Yrotation Zrotation
									JOINT mixamorig:LeftHandIndex2
									{
										OFFSET 4.462021 -0.042068 -0.222766
										CHANNELS 3 Xrotation Yrotation Zrotation
										JOINT mixamorig:LeftHandIndex3
										{
											OFFSET 4.426414 -0.140015 -0.221126
											CHANNELS 3 Xrotation Yrotation Zrotation
											JOINT mixamorig:LeftHandIndex4
											{
												OFFSET 3.584976 -0.033737 -0.180877
												CHANNELS 3 Xrotation Yrotation Zrotation
												End Site
												{
													OFFSET 3.584984 -0.033707 -0.180676
												}
											}
										}
									}
								}
								JOINT mixamorig:LeftHandMiddle1
								{
									OFFSET 12.067444 0.830978 1.411757
									CHANNELS 3 Xrotation Yrotation Zrotation
									JOINT mixamorig:LeftHandMiddle2
									{
										OFFSET 5.488625 0.110443 -0.140360
										CHANNELS 3 Xrotation Yrotation Zrotation
										JOINT mixamorig:LeftHandMiddle3
										{
											OFFSET 5.193268 -0.285706 -0.132956
											CHANNELS 3 Xrotation Yrotation Zrotation
											JOINT mixamorig:LeftHandMiddle4
											{
												OFFSET 4.443779 -0.316895 -0.113542
												CHANNELS 3 Xrotation Yrotation Zrotation
												End Site
												{
													OFFSET 4.443962 -0.316620 -0.107084
												}
											}
										}
									}
								}
								JOINT mixamorig:LeftHandRing1
								{
									OFFSET 12.202324 0.602158 -2.428782
									CHANNELS 3 Xrotation Yrotation Zrotation
									JOINT mixamorig:LeftHandRing2
									{
										OFFSET 4.681709 0.293594 -0.070412
										CHANNELS 3 Xrotation Yrotation Zrotation
										JOINT mixamorig:LeftHandRing3
										{
											OFFSET 4.517784 0.001785 -0.067170
											CHANNELS 3 Xrotation Yrotation Zrotation
											JOINT mixamorig:LeftHandRing4
											{
												OFFSET 3.536186 -0.473984 -0.050865
												CHANNELS 3 Xrotation Yrotation Zrotation
												End Site
												{
													OFFSET 3.536438 -0.473450 -0.036327
												}
											}
										}
									}
								}
								JOINT mixamorig:LeftHandPinky1
								{
									OFFSET 11.261032 -0.021225 -5.740205
									CHANNELS 3 Xrotation Yrotation Zrotation
									JOINT mixamorig:LeftHandPinky2
									{
										OFFSET 4.446136 0.226913 -0.056313
										CHANNELS 3 Xrotation Yrotation Zrotation
										JOINT mixamorig:LeftHandPinky3
										{
											OFFSET 3.536148 0.035980 -0.044635
											CHANNELS 3 Xrotation Yrotation Zrotation
											JOINT mixamorig:LeftHandPinky4
											{
												OFFSET 2.822449 0.069366 -0.035670
												CHANNELS 3 Xrotation Yrotation Zrotation
												End Site
												{
													OFFSET 2.822449 0.069397 -0.035034
												}
											}
										}
									}
								}
							}
						}
					}
				}
				JOINT mixamorig:RightShoulder
				{
					OFFSET -11.646637 18.513367 -2.620312
					CHANNELS 3 Xrotation Yrotation Zrotation
					JOINT mixamorig:RightArm
					{
						OFFSET -23.494804 -6.787735 -0.036485
						CHANNELS 3 Xrotation Yrotation Zrotation
						JOINT mixamorig:RightForeArm
						{
							OFFSET -22.628826 -2.236481 0.960591
							CHANNELS 3 Xrotation Yrotation Zrotation
							JOINT mixamorig:RightHand
							{
								OFFSET -32.235806 0.214096 0.317908
								CHANNELS 3 Xrotation Yrotation Zrotation
								JOINT mixamorig:RightHandThumb1
								{
									OFFSET -4.056908 -2.304855 4.721249
									CHANNELS 3 Xrotation Yrotation Zrotation
									JOINT mixamorig:RightHandThumb2
									{
										OFFSET -3.245529 -1.843887 3.777003
										CHANNELS 3 Xrotation Yrotation Zrotation
										JOINT mixamorig:RightHandThumb3
										{
											OFFSET -4.153908 -1.359879 2.907515
											CHANNELS 3 Xrotation Yrotation Zrotation
											JOINT mixamorig:RightHandThumb4
											{
												OFFSET -3.491310 -1.375549 1.529044
												CHANNELS 3 Xrotation Yrotation Zrotation
												End Site
												{
													OFFSET -3.035126 -1.400162 2.290608
												}
											}
										}
									}
								}
								JOINT mixamorig:RightHandIndex1
								{
									OFFSET -12.331047 0.757294 5.317495
									CHANNELS 3 Xrotation Yrotation Zrotation
									JOINT mixamorig:RightHandIndex2
									{
										OFFSET -4.758568 -0.224289 -0.035605
										CHANNELS 3 Xrotation Yrotation Zrotation
										JOINT mixamorig:RightHandIndex3
										{
											OFFSET -4.415932 -0.181503 -0.033052
											CHANNELS 3 Xrotation Yrotation Zrotation
											JOINT mixamorig:RightHandIndex4
											{
												OFFSET -3.678474 0.414856 -0.027373
												CHANNELS 3 Xrotation Yrotation Zrotation
												End Site
												{
													OFFSET -3.678375 0.414001 -0.046045
												}
											}
										}
									}
								}
								JOINT mixamorig:RightHandMiddle1
								{
									OFFSET -12.051239 0.663742 1.548264
									CHANNELS 3 Xrotation Yrotation Zrotation
									JOINT mixamorig:RightHandMiddle2
									{
										OFFSET -5.374817 0.301971 -0.166537
										CHANNELS 3 Xrotation Yrotation Zrotation
										JOINT mixamorig:RightHandMiddle3
										{
											OFFSET -5.310471 -0.301758 -0.164593
											CHANNELS 3 Xrotation Yrotation Zrotation
											JOINT mixamorig:RightHandMiddle4
											{
												OFFSET -4.485832 -0.342514 -0.139207
												CHANNELS 3 Xrotation Yrotation Zrotation
												End Site
												{
													OFFSET -4.486198 -0.342010 -0.127963
												}
											}
										}
									}
								}
								JOINT mixamorig:RightHandRing1
								{
									OFFSET -12.195183 0.742325 -2.381488
									CHANNELS 3 Xrotation Yrotation Zrotation
									JOINT mixamorig:RightHandRing2
									{
										OFFSET -4.583191 0.034424 -0.012763
										CHANNELS 3 Xrotation Yrotation Zrotation
										JOINT mixamorig:RightHandRing3
										{
											OFFSET -4.612793 0.026199 -0.012632
											CHANNELS 3 Xrotation Yrotation Zrotation
											JOINT mixamorig:RightHandRing4
											{
												OFFSET -3.314957 -0.541855 -0.006643
												CHANNELS 3 Xrotation Yrotation Zrotation
												End Site
												{
													OFFSET -3.315063 -0.541092 0.010116
												}
											}
										}
									}
								}
								JOINT mixamorig:RightHandPinky1
								{
									OFFSET -11.332825 -0.054398 -5.574547
									CHANNELS 3 Xrotation Yrotation Zrotation
									JOINT mixamorig:RightHandPinky2
									{
										OFFSET -4.462639 0.300003 -0.206312
										CHANNELS 3 Xrotation Yrotation Zrotation
										JOINT mixamorig:RightHandPinky3
										{
											OFFSET -3.493774 0.049591 -0.161451
											CHANNELS 3 Xrotation Yrotation Zrotation
											JOINT mixamorig:RightHandPinky4
											{
												OFFSET -2.793701 0.056946 -0.129098
												CHANNELS 3 Xrotation Yrotation Zrotation
												End Site
												{
													OFFSET -2.793793 0.057053 -0.126857
												}
											}
										}
									}
								}
							}
						}
					}
				}
			}
		}
	}
	JOINT mixamorig:LeftUpLeg
	{
		OFFSET 13.580879 -8.149223 -1.796077
		CHANNELS 3 Xrotation Yrotation Zrotation
		JOINT mixamorig:LeftLeg
		{
			OFFSET 3.676140 -35.802425 -2.676071
			CHANNELS 3 Xrotation Yrotation Zrotation
			JOINT mixamorig:LeftFoot
			{
				OFFSET -0.369089 -26.709160 -2.057140
				CHANNELS 3 Xrotation Yrotation Zrotation
				JOINT mixamorig:LeftToeBase
				{
					OFFSET -1.192477 -6.581660 13.403662
					CHANNELS 3 Xrotation Yrotation Zrotation
					JOINT mixamorig:LeftToe_End
					{
						OFFSET -0.351336 -0.163913 5.937977
						CHANNELS 3 Xrotation Yrotation Zrotation
						End Site
						{
							OFFSET -0.351338 -0.163913 5.937977
						}
					}
				}
			}
		}
	}
	JOINT mixamorig:RightUpLeg
	{
		OFFSET -13.580879 -8.149223 -2.255285
		CHANNELS 3 Xrotation Yrotation Zrotation
		JOINT mixamorig:RightLeg
		{
			OFFSET -3.676140 -35.802425 -2.316821
			CHANNELS 3 Xrotation Yrotation Zrotation
			JOINT mixamorig:RightFoot
			{
				OFFSET 0.369059 -26.709040 -2.090143
				CHANNELS 3 Xrotation Yrotation Zrotation
				JOINT mixamorig:RightToeBase
				{
					OFFSET 1.192393 -6.582436 13.372205
					CHANNELS 3 Xrotation Yrotation Zrotation
					JOINT mixamorig:RightToe_End
					{
						OFFSET 0.351307 -0.164255 5.913618
						CHANNELS 3 Xrotation Yrotation Zrotation
						End Site
						{
							OFFSET 0.351309 -0.164255 5.913618
						}
					}
				}
			}
		}
	}
}
MOTION
Frames: 4
Frame Time: 0.016667
-1.224628 73.539841 3.941875 2.374895 -22.555805 3.255577 -2.267180 0.705761 -2.625618 2.875372 0.054109 -0.113500 2.875238 0.070264 -0.111166 0.296890 1.504773 -0.271394 -5.271143 10.548166 -11.974437 0.000000 0.000001 0.000001 0.029780 -0.769817 14.322181 -69.667971 25.047636 -15.249705 5.602313 -135.107166 7.515363 -51.539238 3.185837 -24.708821 -3.444005 28.859974 12.255732 3.243149 -4.685045 -5.926721 -4.844268 -4.083317 5.619808 0.000001 -0.000002 0.000000 0.376574 -9.325081 2.047676 0.063324 -0.001053 1.268656 0.363954 -0.614828 6.778346 0.000001 0.000000 0.000005 0.181204 -7.320410 -7.754293 0.109951 0.001862 4.299370 0.179800 -0.440833 7.071579 0.000000 0.000001 -0.000001 0.345366 -6.495827 -13.374167 0.052695 0.011176 3.564904 0.175895 -0.232307 11.514209 0.000001 0.000001 -0.000000 0.817477 -2.529420 -9.403461 0.222493 -4.068595 2.048077 0.020216 -0.150667 1.261536 -0.000001 -0.000000 0.000002 -0.302562 -2.487030 -8.023601 -74.816635 -5.370223 27.057163 4.584572 140.823679 -6.837552 -41.578783 6.781621 -0.887479 -1.672853 -34.030004 -8.470623 3.954639 4.132439 6.367113 -6.083590 10.687326 -4.186519 0.000000 0.000001 0.000000 0.056414 7.635673 -4.211759 -0.006773 -0.407559 6.290169 -0.070652 -0.422676 14.732139 -0.000001 0.000001 0.000003 0.392358 8.855011 3.518735 -0.027215 -0.450342 1.011226 -0.143004 -0.456382 6.387574 -0.000003 0.000001 -0.000000 0.223787 7.090142 3.090166 0.020018 -0.613509 9.294216 0.050217 -0.649958 -0.211160 -0.000001 0.000000 0.000002 0.226010 9.453666 8.429993 -0.344051 -0.661101 7.850840 -0.464343 -0.684893 11.229932 0.000001 0.000001 0.000002 -10.824789 5.204777 1.469181 32.198591 11.069167 3.537612 -19.545954 16.264764 -11.041650 -0.164137 -0.000008 0.000001 0.000000 0.000000 -0.000000 -26.968976 1.520175 -8.824563 40.652439 0.846818 3.725158 -15.687479 -0.128301 2.487500 -0.925205 -0.000001 0.000003 0.000002 -0.000000 0.000001 
-1.302136 73.506332 3.964990 2.434895 -22.401007 3.106853 -1.947898 1.287932 -2.591553 2.736829 0.139041 0.001221 2.736187 0.153807 0.006733 0.235447 1.507153 -0.490345 -5.299272 10.240711 -11.835472 0.000000 -0.000000 0.000000 -0.156442 0.067920 14.753045 -74.026123 25.092237 -13.805944 5.425159 -136.026632 7.392655 -53.062920 1.635394 -21.860432 -3.444011 28.859964 12.255731 3.243149 -4.685040 -5.926725 -4.844273 -4.083318 5.619805 -0.000001 0.000000 -0.000003 0.512781 -9.507260 4.581998 0.063322 -0.001046 1.268584 0.417598 -0.677371 7.690083 -0.000001 -0.000000 0.000000 0.229127 -7.516785 -5.184799 0.109931 0.001844 4.299319 0.206834 -0.504836 7.979013 0.000000 0.000001 0.000004 0.355522 -6.680135 -10.884463 0.052692 0.011179 3.564916 0.193785 -0.295096 12.431319 0.000001 -0.000001 -0.000004 0.652446 -2.699727 -6.888019 0.222493 -4.068593 2.048080 0.035434 -0.216896 2.179851 -0.000000 0.000001 0.000001 -0.301587 -2.453622 -8.112628 -74.291087 -5.389885 27.278503 4.582138 140.838774 -6.836016 -41.262802 7.708215 -1.332770 -1.672852 -34.030004 -8.470622 3.954642 4.132435 6.367106 -6.083591 10.687325 -4.186518 0.000002 0.000000 0.000004 0.068363 7.716154 -5.398551 -0.008251 -0.366888 5.697545 -0.072053 -0.381335 14.139578 -0.000001 -0.000001 -0.000001 0.429300 8.927283 2.344938 -0.011042 -0.413852 0.408279 -0.131404 -0.419968 5.805834 -0.000001 0.000000 -0.000002 0.224297 7.165434 1.933235 0.015780 -0.574879 8.697030 0.045644 -0.612991 -0.787320 -0.000002 0.000000 -0.000000 0.274834 9.528323 7.267675 -0.321587 -0.624050 7.273865 -0.443894 -0.646531 10.652979 -0.000000 -0.000000 0.000001 -11.008303 4.640181 1.628870 32.596152 11.054083 3.425233 -19.740990 16.694169 -11.071095 -0.183076 -0.000002 -0.000003 0.000000 -0.000001 0.000000 -26.968845 1.297088 -8.819710 40.598791 0.866774 4.095551 -15.697913 -0.064282 2.196171 -0.941866 0.000001 0.000003 0.000001 -0.000000 0.000001 
-1.389161 73.499741 3.986870 2.289809 -22.334847 2.815563 -1.620581 1.949247 -2.560431 2.684503 0.234492 0.144823 2.682921 0.248115 0.153719 0.245737 1.507165 -0.650779 -5.175235 9.995855 -11.719622 0.000000 0.000000 0.000000 -0.359460 0.952943 15.167909 -77.251789 24.846328 -12.792038 5.252007 -136.953790 7.274770 -54.743983 0.212092 -19.617538 -3.444007 28.859974 12.255739 3.243149 -4.685041 -5.926725 -4.844271 -4.083319 5.619808 -0.000000 -0.000002 -0.000001 0.598150 -9.613336 6.098875 0.063336 -0.001040 1.268662 0.393229 -0.649231 7.278129 -0.000001 0.000001 0.000001 0.269707 -7.658653 -3.308539 0.109938 0.001860 4.299516 0.195568 -0.478520 7.605015 -0.000000 0.000001 -0.000001 0.368531 -6.818775 -9.005484 0.052697 0.011184 3.565053 0.187316 -0.272848 12.105773 -0.000000 0.000001 0.000002 0.544282 -2.819904 -5.173178 0.222493 -4.068587 2.048068 0.030290 -0.195058 1.876744 0.000000 -0.000001 -0.000002 -0.284505 -2.340599 -8.060868 -73.352455 -5.498607 27.526798 4.579967 140.851983 -6.834680 -40.874215 8.549055 -1.639789 -1.672848 -34.030021 -8.470644 3.954640 4.132438 6.367106 -6.083592 10.687323 -4.186520 -0.000002 0.000003 0.000009 0.081363 7.793106 -6.537165 -0.009276 -0.327865 5.129138 -0.072979 -0.341680 13.571171 0.000001 0.000001 0.000003 0.466995 8.997449 1.192999 0.005201 -0.378219 -0.183305 -0.119685 -0.384372 5.235054 0.000000 -0.000001 -0.000004 0.226343 7.241387 0.765615 0.011935 -0.535861 8.094423 0.041431 -0.575636 -1.368692 -0.000002 0.000001 0.000001 0.326793 9.604317 6.068040 -0.298012 -0.586063 6.678529 -0.422388 -0.607189 10.057641 -0.000001 -0.000000 0.000000 -10.920143 4.130289 1.857535 32.899785 11.032513 3.346307 -19.912288 17.147137 -11.130691 -0.207466 -0.000001 -0.000001 0.000000 0.000000 -0.000000 -26.740836 0.998668 -8.625762 40.443196 0.900081 4.225477 -15.655736 -0.020254 1.999098 -0.977968 0.000015 0.000003 0.000001 -0.000002 0.000001 
-1.487221 73.516174 4.002565 1.978118 -22.369115 2.420101 -1.293109 2.695230 -2.535730 2.705724 0.341525 0.323611 2.702567 0.354409 0.336356 0.340070 1.505613 -0.752745 -4.863355 9.830551 -11.675263 -0.000000 0.000000 -0.000001 -0.572336 1.851121 15.554504 -79.334280 24.380166 -12.463325 5.092608 -137.832972 7.168103 -56.152840 -0.940879 -18.040739 -3.444004 28.859971 12.255737 3.243148 -4.685047 -5.926725 -4.844274 -4.083316 5.619805 -0.000002 -0.000000 -0.000008 0.642493 -9.666199 6.867550 0.063333 -0.001040 1.268623 0.313140 -0.553661 5.898310 -0.000002 0.000001 -0.000002 0.302218 -7.761168 -1.940953 0.109943 0.001864 4.299487 0.157762 -0.386442 6.305104 -0.000001 -0.000002 0.000002 0.381882 -6.926853 -7.535841 0.052695 0.011177 3.564922 0.164358 -0.189643 10.893241 0.000001 -0.000001 -0.000001 0.471437 -2.905068 -3.984413 0.222486 -4.068598 2.048077 0.011609 -0.110922 0.711894 -0.000000 -0.000001 0.000004 -0.251836 -2.138897 -7.875692 -71.928244 -5.684872 27.789277 4.578775 140.859237 -6.833940 -40.465825 9.214138 -1.821811 -1.672852 -34.030021 -8.470634 3.954638 4.132431 6.367107 -6.083594 10.687324 -4.186515 -0.000002 0.000003 0.000007 0.094738 7.863753 -7.586367 -0.009890 -0.291908 4.605436 -0.073486 -0.305107 13.047544 0.000001 -0.000002 -0.000003 0.503921 9.063017 0.104633 0.020879 -0.344697 -0.742106 -0.108274 -0.350855 4.695915 -0.000000 -0.000001 -0.000004 0.229857 7.315209 -0.370354 0.008551 -0.497852 7.508272 0.037702 -0.539266 -1.934221 -0.000001 0.000000 0.000002 0.380072 9.678828 4.874654 -0.274159 -0.548535 6.086441 -0.400605 -0.568293 9.465546 0.000003 -0.000001 0.000000 -10.602666 3.782627 2.164073 33.095620 11.004286 3.304576 -20.048057 17.528140 -11.227186 -0.233182 -0.000001 0.000003 0.000000 -0.000000 -0.000000 -26.332017 0.704101 -8.248221 40.218609 0.911422 4.132031 -15.573618 0.002333 1.903752 -1.031475 0.000007 0.000004 0.000001 0.000002 0.000001 
